<svg width="20" height="25" xmlns="http://www.w3.org/2000/svg"><g fill="none" fill-rule="evenodd"><rect fill="#FB8999" fill-rule="nonzero" width="20" height="25" rx="2.5"/><rect fill="#FFF" x="2.917" y="13.75" width="11.25" height="1.667" rx=".833"/><rect fill="#FFF" x="2.917" y="17.083" width="13.75" height="1.667" rx=".833"/><rect fill="#FFF" x="2.917" y="20.417" width="9.167" height="1.667" rx=".833"/><path d="M7.904 3.555c.999-.873 2.555-.847 3.52.058.966.906.993 2.365.062 3.302L7.883 10.3a.437.437 0 01-.3.118.437.437 0 01-.3-.118L3.68 6.915a2.273 2.273 0 01.062-3.302c.966-.905 2.522-.931 3.52-.058l.321.297.321-.297z" fill="#FFF" fill-rule="nonzero"/></g></svg>